<mxfile host="app.diagrams.net" modified="2021-01-18T18:37:48.623Z" agent="5.0 (Windows NT 10.0; Win64; x64) AppleWebKit/537.36 (KHTML, like Gecko) Chrome/87.0.4280.141 Safari/537.36" etag="uxnKp3GX_jK8pc3Si9Co" version="14.2.4" type="github">
  <diagram id="C5RBs43oDa-KdzZeNtuy" name="Page-1">
    <mxGraphModel dx="1550" dy="809" grid="1" gridSize="10" guides="1" tooltips="1" connect="1" arrows="1" fold="1" page="1" pageScale="1" pageWidth="3600" pageHeight="3600" math="0" shadow="0">
      <root>
        <mxCell id="WIyWlLk6GJQsqaUBKTNV-0" />
        <mxCell id="WIyWlLk6GJQsqaUBKTNV-1" parent="WIyWlLk6GJQsqaUBKTNV-0" />
        <mxCell id="99VuF6W3ZOcapH6YlN_M-9" value="&lt;font style=&quot;font-size: 8px&quot;&gt;&lt;b&gt;Juliane Crane&lt;br&gt;&lt;/b&gt;- Akido&lt;br&gt;- Lives SF&lt;br&gt;- Bus Accident??&lt;/font&gt;" style="whiteSpace=wrap;html=1;aspect=fixed;" vertex="1" parent="WIyWlLk6GJQsqaUBKTNV-1">
          <mxGeometry x="370" y="350" width="70" height="70" as="geometry" />
        </mxCell>
        <mxCell id="99VuF6W3ZOcapH6YlN_M-15" value="&lt;span style=&quot;font-size: 8px&quot;&gt;&lt;b&gt;???&lt;br&gt;&lt;/b&gt;&lt;/span&gt;Died" style="whiteSpace=wrap;html=1;aspect=fixed;" vertex="1" parent="WIyWlLk6GJQsqaUBKTNV-1">
          <mxGeometry x="460" y="380" width="70" height="70" as="geometry" />
        </mxCell>
      </root>
    </mxGraphModel>
  </diagram>
</mxfile>
